<?xml version="1.0" encoding="utf-8"?>
<!-- Generator: Adobe Illustrator 21.0.0, SVG Export Plug-In . SVG Version: 6.00 Build 0)  -->
<svg version="1.1" xmlns="http://www.w3.org/2000/svg" xmlns:xlink="http://www.w3.org/1999/xlink" x="0px" y="0px"
	 viewBox="0 0 1510.9 408.2" style="enable-background:new 0 0 1510.9 408.2;" xml:space="preserve">
<style type="text/css">
	.st0{fill-rule:evenodd;clip-rule:evenodd;fill:#951B26;}
	.st1{fill:#333333;}
	.st2{fill:#951B26;}
	.st3{fill:#FFFFFF;}
</style>
<g id="Layer_6">
	<g>
		<g>
			<path class="st1" d="M491.2,181.6h-17.8l-19.3-31.1l-6.6,4.7v26.3h-15.6v-73.8h15.6v33.8l6.2-8.7l20-25.1h17.4l-25.7,32.6
				L491.2,181.6z"/>
			<path class="st1" d="M510.8,181.6v-73.8h15.6v73.8H510.8z"/>
			<path class="st1" d="M620.7,181.6h-19.9l-32.1-55.8h-0.5c0.6,9.9,1,16.9,1,21.1v34.7h-14v-73.8H575l32,55.2h0.4
				c-0.5-9.6-0.8-16.4-0.8-20.3v-34.9h14.1V181.6z"/>
			<path class="st1" d="M677.6,140.1h29.3v38.2c-4.7,1.5-9.2,2.6-13.4,3.3s-8.5,0.9-12.8,0.9c-11.1,0-19.6-3.3-25.5-9.8
				c-5.9-6.5-8.8-15.9-8.8-28.2c0-11.9,3.4-21.2,10.2-27.8s16.3-10,28.3-10c7.6,0,14.9,1.5,21.9,4.5l-5.2,12.5c-5.4-2.7-11-4-16.8-4
				c-6.8,0-12.2,2.3-16.2,6.8c-4.1,4.5-6.1,10.6-6.1,18.3c0,8,1.6,14.1,4.9,18.3c3.3,4.2,8,6.3,14.3,6.3c3.3,0,6.6-0.3,9.9-1v-15.4
				h-14V140.1z"/>
			<path class="st1" d="M482.8,245.9c0,7.9-2.5,14-7.4,18.2c-5,4.2-12,6.3-21.2,6.3h-6.7v26.2h-15.6v-73.8h23.6
				c8.9,0,15.7,1.9,20.4,5.8C480.4,232.5,482.8,238.3,482.8,245.9z M447.5,257.6h5.1c4.8,0,8.4-0.9,10.8-2.8
				c2.4-1.9,3.6-4.7,3.6-8.3c0-3.7-1-6.4-3-8.1c-2-1.7-5.1-2.6-9.4-2.6h-7.1V257.6z"/>
			<path class="st1" d="M567.5,296.7h-15.6v-31.8h-29.2v31.8H507v-73.8h15.6v28.9h29.2v-28.9h15.6V296.7z"/>
			<path class="st1" d="M596.4,296.7v-73.8h15.6v73.8H596.4z"/>
			<path class="st1" d="M641,296.7v-73.8h15.6v60.8h29.9v12.9H641z"/>
			<path class="st1" d="M754.8,296.7l-5.3-17.6h-26.9l-5.3,17.6h-16.8l26-74.1h19.1l26.1,74.1H754.8z M745.7,266
				c-4.9-15.9-7.7-24.9-8.3-27c-0.6-2.1-1.1-3.7-1.3-4.9c-1.1,4.3-4.3,15-9.5,31.9H745.7z"/>
			<path class="st1" d="M856.7,296.7h-19.9l-32.1-55.8h-0.5c0.6,9.9,1,16.9,1,21.1v34.7h-14v-73.8H811l32,55.2h0.4
				c-0.5-9.6-0.8-16.4-0.8-20.3v-34.9h14.1V296.7z"/>
			<path class="st1" d="M914.1,296.7h-15.6v-60.7h-20v-13h55.7v13h-20V296.7z"/>
			<path class="st1" d="M1016.2,296.7h-15.6v-31.8h-29.2v31.8h-15.6v-73.8h15.6v28.9h29.2v-28.9h15.6V296.7z"/>
			<path class="st1" d="M1060.8,268.4v28.3h-15.6v-73.8h21.5c10,0,17.4,1.8,22.2,5.5c4.8,3.6,7.2,9.2,7.2,16.6
				c0,4.3-1.2,8.2-3.6,11.6c-2.4,3.4-5.8,6-10.1,7.9c11.1,16.6,18.3,27.3,21.7,32.1h-17.4l-17.6-28.3H1060.8z M1060.8,255.7h5
				c4.9,0,8.6-0.8,10.9-2.5c2.4-1.6,3.5-4.2,3.5-7.8c0-3.5-1.2-6-3.6-7.5c-2.4-1.5-6.1-2.2-11.2-2.2h-4.7V255.7z"/>
			<path class="st1" d="M1190.7,259.7c0,12.2-3,21.6-9.1,28.2c-6.1,6.6-14.7,9.8-26,9.8c-11.3,0-20-3.3-26-9.8
				c-6.1-6.6-9.1-16-9.1-28.3c0-12.3,3-21.7,9.1-28.1s14.8-9.7,26.1-9.7c11.3,0,20,3.3,26,9.8
				C1187.7,238.1,1190.7,247.5,1190.7,259.7z M1136.8,259.7c0,8.2,1.6,14.4,4.7,18.6c3.1,4.2,7.8,6.3,14,6.3
				c12.5,0,18.7-8.3,18.7-24.9c0-16.6-6.2-24.9-18.6-24.9c-6.2,0-10.9,2.1-14.1,6.3C1138.4,245.2,1136.8,251.5,1136.8,259.7z"/>
			<path class="st1" d="M1267.2,245.9c0,7.9-2.5,14-7.4,18.2c-5,4.2-12,6.3-21.2,6.3h-6.7v26.2h-15.6v-73.8h23.6
				c8.9,0,15.7,1.9,20.4,5.8C1264.9,232.5,1267.2,238.3,1267.2,245.9z M1231.9,257.6h5.1c4.8,0,8.4-0.9,10.8-2.8
				c2.4-1.9,3.6-4.7,3.6-8.3c0-3.7-1-6.4-3-8.1c-2-1.7-5.1-2.6-9.4-2.6h-7.1V257.6z"/>
			<path class="st1" d="M1291.5,296.7v-73.8h15.6v73.8H1291.5z"/>
			<path class="st1" d="M1378.5,296.7H1336v-73.8h42.5v12.8h-26.8v16.2h25v12.8h-25v19h26.8V296.7z"/>
			<path class="st1" d="M1447.8,276.2c0,6.7-2.4,11.9-7.2,15.7c-4.8,3.8-11.5,5.8-20,5.8c-7.9,0-14.8-1.5-20.9-4.4v-14.5
				c5,2.2,9.2,3.8,12.6,4.7c3.4,0.9,6.6,1.4,9.5,1.4c3.4,0,6.1-0.7,7.9-2c1.8-1.3,2.7-3.3,2.7-5.9c0-1.4-0.4-2.7-1.2-3.9
				s-2-2.2-3.6-3.3c-1.6-1-4.8-2.7-9.6-5c-4.5-2.1-7.9-4.2-10.1-6.1c-2.3-2-4.1-4.2-5.4-6.8c-1.3-2.6-2-5.6-2-9.1
				c0-6.5,2.2-11.7,6.6-15.4c4.4-3.7,10.5-5.6,18.3-5.6c3.8,0,7.5,0.5,11,1.4c3.5,0.9,7.1,2.2,10.9,3.8l-5,12.2
				c-3.9-1.6-7.2-2.7-9.8-3.4c-2.6-0.6-5.1-1-7.6-1c-3,0-5.2,0.7-6.8,2.1c-1.6,1.4-2.4,3.2-2.4,5.4c0,1.4,0.3,2.6,1,3.6
				c0.6,1,1.7,2,3.1,3c1.4,1,4.7,2.7,9.9,5.2c6.9,3.3,11.6,6.6,14.2,9.9C1446.5,267.3,1447.8,271.4,1447.8,276.2z"/>
		</g>
		<g>
			<g>
				<path class="st2" d="M153.5,174v-37.9c0-7.5,8.8-13.6,19.5-13.6h7.2v-14.7H99.8v14.7h7c10.6,0,19.3,6,19.5,13.3v73.7
					C134.2,197.1,143.5,185.3,153.5,174z"/>
			</g>
			<path class="st2" d="M376.5,284.5c-1.9,2.7-4.3,4.9-6.9,6.9c-10.6,7.6-25.4,9.7-40.2,6.7c20.5-28.7,32.1-64.1,30.7-102.3
				C356.8,110.1,287.7,40.3,202,36.3c-97.8-4.6-178.3,76-173.7,173.8c4,85.6,73.6,154.5,159.2,157.8c39.7,1.5,76.5-11,105.8-32.9
				c-1.1-0.3-14.9-7.1-20.9-11.9c-22.6,14.7-49.5,23.2-78.4,23.2c-82.9,0-149.8-70.4-143.9-154.6c5-71.1,62.5-128.6,133.6-133.6
				c84.2-5.9,154.6,60.9,154.6,143.9c0,33.1-11.2,63.6-30,88c-2.6-1.5-5-3.2-7.4-5c-28.8-24.3-71.2-81.6-72.2-82.6
				c-7.6-9-16-14.3-24.4-16.9c14.4-15.5,30.1-30.2,45.2-44.3c4.9-4.6,9.4-9.1,14.1-13.3c3.7-3.3,9.3-5.4,15.5-5.3h9.2v-14.7h-80.5
				v14.7h14.3c2.1,0,3.1,2.6,1.6,4c-42.8,40.2-88.5,85.3-99,142.4c0,0,0,0.1-0.1,0.1c-0.9,6.9-9.2,12.3-19.4,12.3h-5.3V296h80.5
				v-14.7h-7c-6.1,0-11.6-2-15.1-5c-3.4-2.9-4.6-7.8-3.4-12.1c3.8-13.4,10-26.2,17.8-38.6c2.1-3.3,7.1-12.6,15.7-13.2
				c2.6-0.2,10.6-1.5,19.9,10.6c0,0,42.3,54.4,69.3,80c35.3,33.4,85.9,26.7,98.7-17.6l0-0.1c0,0,0,0,0,0
				C376.3,285,376.4,284.8,376.5,284.5z"/>
		</g>
	</g>
</g>
<g id="Layer_7">
</g>
</svg>
