<svg id="Layer_6" data-name="Layer 6" xmlns="http://www.w3.org/2000/svg" viewBox="0 0 508 172"><defs><style>.cls-1{fill:#333;}.cls-2{fill:#c33d53;}</style></defs><title>King-Philanthropies_Logos</title><path class="cls-1" d="M176.7,81.13h-5.75l-6.26-10.07-2.14,1.54v8.53h-5.07V57.24h5.07V68.18l2-2.81L171,57.24h5.62L168.3,67.82Z"/><path class="cls-1" d="M183.05,81.13V57.24h5.07V81.13Z"/><path class="cls-1" d="M218.67,81.13h-6.44L201.84,63.06h-.15q.31,4.79.31,6.83V81.13h-4.53V57.24h6.39l10.38,17.89h.11q-.25-4.66-.25-6.59V57.24h4.56Z"/><path class="cls-1" d="M237.11,67.72h9.48V80.1a26.67,26.67,0,0,1-4.34,1.05,28.27,28.27,0,0,1-4.16.3q-5.41,0-8.26-3.18T227,69.16q0-5.79,3.31-9t9.18-3.24a17.76,17.76,0,0,1,7.09,1.47l-1.68,4.05a12,12,0,0,0-5.44-1.31,6.72,6.72,0,0,0-5.26,2.21,8.56,8.56,0,0,0-2,5.93,9.53,9.53,0,0,0,1.59,5.94,5.51,5.51,0,0,0,4.63,2.05,16.39,16.39,0,0,0,3.22-.33v-5h-4.53Z"/><path class="cls-1" d="M174,102a7.3,7.3,0,0,1-2.41,5.9q-2.41,2-6.86,2h-2.17v8.5h-5.07V94.53h7.63q4.35,0,6.61,1.87A6.82,6.82,0,0,1,174,102Zm-11.44,3.79h1.67a5.55,5.55,0,0,0,3.5-.92,3.23,3.23,0,0,0,1.16-2.69,3.31,3.31,0,0,0-1-2.63,4.56,4.56,0,0,0-3-.85h-2.3Z"/><path class="cls-1" d="M201.42,118.43h-5.05V108.11h-9.46v10.31h-5.07V94.53h5.07v9.36h9.46V94.53h5.05Z"/><path class="cls-1" d="M210.8,118.43V94.53h5.07v23.89Z"/><path class="cls-1" d="M225.23,118.43V94.53h5.07v19.71H240v4.18Z"/><path class="cls-1" d="M262.11,118.43l-1.73-5.69h-8.71l-1.73,5.69h-5.46l8.43-24h6.19l8.47,24Zm-2.94-9.94q-2.4-7.73-2.7-8.74t-.43-1.6q-.54,2.09-3.09,10.34Z"/><path class="cls-1" d="M295.11,118.43h-6.44l-10.39-18.07h-.15q.31,4.79.31,6.83v11.24h-4.53V94.53h6.39l10.38,17.89h.11q-.25-4.66-.25-6.59V94.53h4.56Z"/><path class="cls-1" d="M313.69,118.43h-5.07V98.75h-6.49V94.53h18v4.22h-6.49Z"/><path class="cls-1" d="M346.78,118.43h-5.05V108.11h-9.46v10.31H327.2V94.53h5.07v9.36h9.46V94.53h5.05Z"/><path class="cls-1" d="M361.23,109.26v9.17h-5.07V94.53h7q4.87,0,7.21,1.77a7.07,7.07,0,0,1,1.18,9.14,7.68,7.68,0,0,1-3.28,2.57q5.39,8.06,7,10.41h-5.62l-5.7-9.17Zm0-4.12h1.63a6.25,6.25,0,0,0,3.55-.8,2.86,2.86,0,0,0,1.14-2.52,2.61,2.61,0,0,0-1.17-2.42,7.09,7.09,0,0,0-3.62-.72h-1.54Z"/><path class="cls-1" d="M403.29,106.45q0,5.93-2.94,9.12t-8.43,3.19q-5.49,0-8.43-3.19t-2.94-9.15q0-6,3-9.11t8.46-3.15q5.51,0,8.42,3.17T403.29,106.45Zm-17.44,0q0,4,1.52,6a5.32,5.32,0,0,0,4.54,2q6.06,0,6.06-8.06t-6-8.07a5.35,5.35,0,0,0-4.56,2Q385.85,102.44,385.85,106.45Z"/><path class="cls-1" d="M428.09,102a7.3,7.3,0,0,1-2.41,5.9q-2.41,2-6.86,2h-2.17v8.5h-5.07V94.53h7.63q4.35,0,6.61,1.87A6.82,6.82,0,0,1,428.09,102Zm-11.44,3.79h1.67a5.55,5.55,0,0,0,3.5-.92,3.23,3.23,0,0,0,1.16-2.69,3.31,3.31,0,0,0-1-2.63,4.56,4.56,0,0,0-3-.85h-2.3Z"/><path class="cls-1" d="M435.95,118.43V94.53H441v23.89Z"/><path class="cls-1" d="M464.14,118.43H450.38V94.53h13.76v4.15h-8.69v5.25h8.09v4.15h-8.09v6.16h8.69Z"/><path class="cls-1" d="M486.57,111.79a6.18,6.18,0,0,1-2.33,5.1,10.12,10.12,0,0,1-6.48,1.86,15.21,15.21,0,0,1-6.77-1.44v-4.71a27.82,27.82,0,0,0,4.09,1.52,12.1,12.1,0,0,0,3.06.44,4.36,4.36,0,0,0,2.56-.64,2.18,2.18,0,0,0,.89-1.9,2.09,2.09,0,0,0-.39-1.25,4.38,4.38,0,0,0-1.15-1.05,29.6,29.6,0,0,0-3.1-1.62,14.64,14.64,0,0,1-3.28-2,7.43,7.43,0,0,1-1.75-2.21,6.3,6.3,0,0,1-.65-2.94,6.18,6.18,0,0,1,2.15-5,8.93,8.93,0,0,1,5.94-1.81,14,14,0,0,1,3.55.44,24.55,24.55,0,0,1,3.54,1.24l-1.63,3.94a23.81,23.81,0,0,0-3.16-1.09,10.17,10.17,0,0,0-2.46-.31,3.26,3.26,0,0,0-2.21.67,2.21,2.21,0,0,0-.77,1.75,2.16,2.16,0,0,0,.31,1.17,3.42,3.42,0,0,0,1,1,30.62,30.62,0,0,0,3.21,1.67,12.79,12.79,0,0,1,4.59,3.21A6.27,6.27,0,0,1,486.57,111.79Z"/><path class="cls-2" d="M67.34,78.67V66.41C67.34,64,70.19,62,73.67,62H76V57.24H49.93V62h2.25c3.45,0,6.25,1.93,6.3,4.32V90.21A94.47,94.47,0,0,1,67.34,78.67Z"/><path class="cls-2" d="M139.54,114.5a11,11,0,0,1-2.24,2.24c-3.42,2.46-8.24,3.15-13,2.16a53.35,53.35,0,0,0,9.93-33.15,53.8,53.8,0,1,0-21.56,45.08,42.66,42.66,0,0,1-6.77-3.84,46.9,46.9,0,1,1,11.61-10.72,21.7,21.7,0,0,1-2.4-1.64c-9.33-7.88-23.06-26.42-23.4-26.76a17,17,0,0,0-7.9-5.48c4.65-5,9.75-9.79,14.63-14.36,1.58-1.48,3-2.94,4.57-4.3A7.51,7.51,0,0,1,108,62h3V57.24H84.87V62h4.62a.75.75,0,0,1,.52,1.3c-13.88,13-28.68,27.62-32.06,46.13l0,0c-.3,2.23-3,4-6.28,4H49.93v4.77H76v-4.77H73.75a7.59,7.59,0,0,1-4.9-1.63,3.82,3.82,0,0,1-1.09-3.92,47.55,47.55,0,0,1,5.77-12.5c.67-1.06,2.3-4.07,5.1-4.27.86-.06,3.44-.47,6.44,3.42,0,0,13.71,17.62,22.45,25.9,11.42,10.81,27.84,8.64,32-5.71v0h0Z"/></svg>